<svg width="1897" height="669" viewBox="0 0 1897 669" fill="none" xmlns="http://www.w3.org/2000/svg">
<path d="M1888.97 625.527L1274.02 7.84374C1269.28 3.07993 1262.84 0.405949 1256.13 0.405949C1249.43 0.405949 1242.99 3.07993 1238.25 7.84374L961.82 285.501L1015.47 303.464L1256.13 61.7404L1777.44 585.356L995.482 323.55L867.755 280.785L34.223 1.7085C31.5861 0.82685 28.8879 0.40235 26.2257 0.40235C17.6396 0.40235 9.4111 4.79971 4.71167 12.4515C-1.45791 22.4762 0.0447702 35.4433 8.34191 43.7773L623.295 661.457C628.233 666.417 634.706 668.899 641.179 668.899C647.652 668.899 654.128 666.417 659.063 661.457L935.491 383.803L881.836 365.84L641.179 607.564L119.871 83.9449L823.954 319.679V319.675L1033.16 389.721L1863.09 667.593C1865.72 668.474 1868.42 668.902 1871.08 668.902C1879.66 668.902 1887.9 664.498 1892.6 656.85C1898.77 646.825 1897.27 633.861 1888.97 625.527Z" fill="#00D9A6"/>
</svg>
